HIERARCHY
ROOT Hips
{
	OFFSET 0.00000 0.00000 0.00000
	CHANNELS 6 Xposition Yposition Zposition Zrotation Yrotation Xrotation 
	JOINT LHipJoint
	{
		OFFSET 0 0 0
		CHANNELS 3 Zrotation Yrotation Xrotation
		JOINT LeftHip
		{
			OFFSET 1.37959 -1.78713 0.86582
			CHANNELS 3 Zrotation Yrotation Xrotation
			JOINT LeftKnee
			{
				OFFSET 2.54611 -6.99539 0.00000
				CHANNELS 3 Zrotation Yrotation Xrotation
				JOINT LeftAnkle
				{
					OFFSET 2.59951 -7.14211 0.00000
					CHANNELS 3 Zrotation Yrotation Xrotation
					JOINT LeftToe
					{
						OFFSET 0.18493 -0.50810 1.96120
						CHANNELS 3 Zrotation Yrotation Xrotation
						End Site
						{
							OFFSET 0.00000 -0.00000 1.02054
						}
					}
				}
			}
		}
	}
	JOINT RHipJoint
	{
		OFFSET 0 0 0
		CHANNELS 3 Zrotation Yrotation Xrotation
		JOINT RightHip
		{
			OFFSET -1.33564 -1.78713 0.86582
			CHANNELS 3 Zrotation Yrotation Xrotation
			JOINT RightKnee
			{
				OFFSET -2.52705 -6.94302 0.00000
				CHANNELS 3 Zrotation Yrotation Xrotation
				JOINT RightAnkle
				{
					OFFSET -2.55964 -7.03257 0.00000
					CHANNELS 3 Zrotation Yrotation Xrotation
					JOINT RightToe
					{
						OFFSET -0.25804 -0.70896 2.12109
						CHANNELS 3 Zrotation Yrotation Xrotation
						End Site
						{
							OFFSET -0.00000 -0.00000 1.11821
						}
					}
				}
			}
		}
	}
	JOINT lowerback
	{
		OFFSET 0 0 0
		CHANNELS 3 Zrotation Yrotation Xrotation
		JOINT Chest
		{
			OFFSET -0.02031 2.24248 -0.18900
			CHANNELS 3 Zrotation Yrotation Xrotation
			JOINT Chest2
			{
				OFFSET 0.08342 2.24689 -0.03799
				CHANNELS 3 Zrotation Yrotation Xrotation
				JOINT lowerneck
				{
					OFFSET 0 0 0
					CHANNELS 3 Zrotation Yrotation Xrotation
					JOINT Neck
					{
						OFFSET -0.11607 1.55844 0.24628
						CHANNELS 3 Zrotation Yrotation Xrotation
						JOINT Head
						{
							OFFSET 0.06877 1.60174 -0.17013
							CHANNELS 3 Zrotation Yrotation Xrotation
							End Site
							{
								OFFSET 0.03358 1.61266 -0.08543
							}
						}
					}
				}
				JOINT LeftCollar
				{
					OFFSET 0 0 0
					CHANNELS 3 Zrotation Yrotation Xrotation
					JOINT LeftShoulder
					{
						OFFSET 3.47537 0.55866 -0.72348
CHANNELS 3 Zrotation Xrotation Yrotation
						JOINT LeftElbow
						{
OFFSET 0 -5.381540 0.000000
CHANNELS 3 Zrotation Xrotation Yrotation
							JOINT LeftWrist
							{
OFFSET 0 -3.333120 0.000000
CHANNELS 3 Zrotation Xrotation Yrotation
								JOINT lhand
								{
									OFFSET 0 0 0
CHANNELS 3 Zrotation Xrotation Yrotation
									JOINT LFingers
									{
OFFSET 0 -0.710790 0.000000
CHANNELS 3 Zrotation Xrotation Yrotation
										End Site
										{
OFFSET 0 -0.573060 0.000000
										}
									}
								}
								JOINT LThumb
								{
OFFSET 0 0.000000 0.000000
CHANNELS 3 Zrotation Xrotation Yrotation
									End Site
									{
OFFSET 0 -0.581810 0.581810
									}
								}
							}
						}
					}
				}
				JOINT RightCollar
				{
					OFFSET 0 0 0
					CHANNELS 3 Zrotation Yrotation Xrotation
					JOINT RightShoulder
					{
						OFFSET -3.27844 0.90739 -0.35708
CHANNELS 3 Zrotation Xrotation Yrotation
						JOINT RightElbow
						{
OFFSET 0 -5.169540 0.000000
CHANNELS 3 Zrotation Xrotation Yrotation
							JOINT RightWrist
							{
OFFSET 0 -3.382870 0.000000
CHANNELS 3 Zrotation Xrotation Yrotation
								JOINT rhand
								{
									OFFSET 0 0 0
CHANNELS 3 Zrotation Xrotation Yrotation
									JOINT RFingers
									{
OFFSET 0 -0.817970 0.000000
CHANNELS 3 Zrotation Xrotation Yrotation
										End Site
										{
OFFSET 0 -0.659470 0.000000
										}
									}
								}
								JOINT RThumb
								{
OFFSET 0 0.000000 0.000000
CHANNELS 3 Zrotation Xrotation Yrotation
									End Site
									{
OFFSET 0 -0.669530 0.669530
									}
								}
							}
						}
					}
				}
			}
		}
	}
}
MOTION
Frames: 11
Frame Time: 0.008333333333333333
7.168284 17.777302 4.943183 -179.044282 -3.903599 -180.266252 0.000000 0.000000 0.000000 -17.568095 -3.545502 -3.662293 2.010414 8.887702 25.444677 0.806970 -5.156532 -16.021246 0.224745 -3.048632 -8.414418 0.000000 0.000000 0.000000 17.432386 3.233517 -14.619723 -2.621465 -10.055408 29.156469 -0.399245 3.347540 -11.256529 -0.034252 -1.193736 3.282098 -4.149101 0.637218 2.902983 0.131812 0.702488 1.112524 2.438351 0.329993 -0.536969 -16.791352 -11.121065 -7.589765 9.865981 -16.047025 19.539185 4.114186 -8.225358 9.569681 0.000000 0.000000 0.000000 12.912739 -4.876898 -23.838841 23.582909 -34.719768 7.467801 -0.082443 6.962481 -34.075703 0.000000 0.000000 0.000000 -7.125000 0.000000 0.000000 -37.619428 59.897364 14.932343 0.000000 0.000000 0.000000 -2.366048 -28.083155 42.393143 -24.948578 -36.148709 -8.260674 -26.059251 -49.173160 -23.327810 0.000000 0.000000 0.000000 7.125000 0.000000 0.000000 1.900194 4.348681 1.751539
7.149052 17.779907 4.952348 -179.082846 -4.112397 -180.268756 0.000000 0.000000 0.000000 -17.682285 -3.547906 -3.683879 1.996841 8.859505 25.356830 0.800910 -5.285197 -15.956538 0.248835 -3.207096 -8.856054 0.000000 0.000000 0.000000 17.296159 3.044352 -14.647770 -2.609796 -10.034824 29.089608 -0.393135 3.306021 -11.170786 -0.036756 -1.236607 3.400095 -4.180504 0.629055 2.943150 0.115835 0.687863 1.140971 2.439854 0.321378 -0.529306 -17.034257 -11.198794 -7.607895 10.023343 -16.137476 19.491355 4.187959 -8.264874 9.606442 0.000000 0.000000 0.000000 12.869016 -4.964494 -23.588324 23.743326 -34.891304 7.559404 -0.044330 7.120044 -34.198708 0.000000 0.000000 0.000000 -7.125000 0.000000 0.000000 -37.712683 60.003691 15.073428 0.000000 0.000000 0.000000 -2.333945 -27.669065 42.024428 -25.402334 -36.609728 -8.529823 -26.000152 -48.885280 -23.220031 0.000000 0.000000 0.000000 7.125000 0.000000 0.000000 1.922982 4.475843 1.768016
7.131232 17.780368 4.963379 -179.183424 -4.264828 -180.267983 0.000000 0.000000 0.000000 -17.860430 -3.636297 -3.666089 1.986167 8.837257 25.287588 0.795051 -5.417491 -15.894780 0.229314 -3.056477 -8.437872 0.000000 0.000000 0.000000 17.096810 2.900562 -14.682623 -2.598378 -10.014592 29.023982 -0.385462 3.248520 -11.061876 -0.037924 -1.256564 3.454994 -4.276188 0.643755 2.991510 0.075633 0.700389 1.177637 2.451490 0.325646 -0.520282 -17.195310 -11.292733 -7.632227 10.094845 -16.217566 19.356379 4.222230 -8.296071 9.597651 0.000000 0.000000 0.000000 12.847224 -5.024083 -23.408693 23.947027 -35.107358 7.676442 0.045991 7.205409 -34.326880 0.000000 0.000000 0.000000 -7.125000 0.000000 0.000000 -37.762050 60.126454 15.208891 0.000000 0.000000 0.000000 -2.277918 -27.216582 41.601994 -25.940111 -37.144582 -8.853473 -25.961448 -48.539824 -23.159643 0.000000 0.000000 0.000000 7.125000 0.000000 0.000000 1.939241 4.548176 1.780385
7.114804 17.778715 4.976250 -179.345194 -4.361640 -180.263977 0.000000 0.000000 0.000000 -18.101682 -3.809536 -3.609445 1.978354 8.820879 25.236703 0.789392 -5.553368 -15.835932 0.166760 -2.600867 -7.171261 0.000000 0.000000 0.000000 16.835174 2.801547 -14.724192 -2.587210 -9.994709 28.959574 -0.376246 3.175248 -10.930106 -0.037774 -1.253910 3.447632 -4.435303 0.681017 3.047954 0.011526 0.739704 1.222411 2.473126 0.342624 -0.509915 -17.275593 -11.402666 -7.662678 10.081623 -16.287433 19.135411 4.217523 -8.319059 9.543912 0.000000 0.000000 0.000000 12.847074 -5.056036 -23.299010 24.193437 -35.367342 7.818579 0.187827 7.219532 -34.460152 0.000000 0.000000 0.000000 -7.125000 0.000000 0.000000 -37.768110 60.265436 15.338808 0.000000 0.000000 0.000000 -2.198285 -26.726215 41.126552 -26.560796 -37.752295 -9.230902 -25.942867 -48.137553 -23.146021 0.000000 0.000000 0.000000 7.125000 0.000000 0.000000 1.949057 4.566406 1.788698
7.102158 17.778154 4.990644 -179.363845 -4.405441 -180.245760 0.000000 0.000000 0.000000 -18.153937 -3.952780 -3.596269 1.971353 8.806177 25.190995 0.780358 -5.741315 -15.744882 0.104358 -1.949434 -5.369681 0.000000 0.000000 0.000000 16.753096 2.857831 -14.759291 -2.579822 -9.981576 28.917015 -0.372030 3.044779 -10.877712 -0.037573 -1.250545 3.438392 -4.484364 0.749720 3.093563 -0.021673 0.826092 1.235847 2.462865 0.385257 -0.528247 -16.902364 -11.433529 -7.740961 9.676956 -16.217708 18.940174 4.035414 -8.279217 9.412167 0.000000 0.000000 0.000000 12.896229 -5.057945 -23.298214 24.435864 -35.621032 7.959295 0.229252 7.111092 -34.572845 0.000000 0.000000 0.000000 -7.125000 0.000000 0.000000 -37.849485 60.364172 15.468344 0.000000 0.000000 0.000000 -2.048946 -26.190247 40.593304 -27.238601 -38.399086 -9.649642 -25.982472 -47.861400 -23.087128 0.000000 0.000000 0.000000 7.125000 0.000000 0.000000 1.917131 4.621736 1.757452
7.093193 17.778655 5.006521 -179.243144 -4.397628 -180.213706 0.000000 0.000000 0.000000 -18.022167 -4.066820 -3.625417 1.965143 8.793105 25.150327 0.768037 -5.979963 -15.622478 0.042104 -1.107331 -3.047211 0.000000 0.000000 0.000000 16.845850 3.065327 -14.788089 -2.576116 -9.975015 28.895730 -0.372681 2.858619 -10.902603 -0.037323 -1.246488 3.427324 -4.426267 0.849035 3.128621 -0.024778 0.958312 1.218768 2.421546 0.452870 -0.574524 -16.087556 -11.387402 -7.865820 8.891147 -16.012065 18.769990 3.680572 -8.178199 9.204471 0.000000 0.000000 0.000000 12.993391 -5.030599 -23.403440 24.674412 -35.868594 8.098627 0.172909 6.883312 -34.665499 0.000000 0.000000 0.000000 -7.125000 0.000000 0.000000 -38.004193 60.423721 15.597509 0.000000 0.000000 0.000000 -1.831734 -25.609880 40.003771 -27.972023 -39.083928 -10.108607 -26.078732 -47.708044 -22.984156 0.000000 0.000000 0.000000 7.125000 0.000000 0.000000 1.844560 4.713188 1.687685
7.083998 17.780739 5.022806 -179.121421 -4.430888 -180.149980 0.000000 0.000000 0.000000 -17.889504 -4.109878 -3.726749 1.955893 8.773546 25.089557 0.754516 -6.174294 -15.488937 0.009684 -0.622874 -1.711705 0.000000 0.000000 0.000000 16.937813 3.247357 -14.866848 -2.577467 -9.977419 28.903512 -0.376602 2.679712 -10.978810 -0.035846 -1.221282 3.357941 -4.363547 0.925439 3.142556 -0.018663 1.061771 1.191396 2.388273 0.506485 -0.617276 -16.112818 -11.376141 -7.804702 8.991256 -16.018860 18.726549 3.721487 -8.176720 9.190439 0.000000 0.000000 0.000000 13.086645 -4.998120 -23.469227 24.907697 -36.108801 8.235686 0.162899 6.691675 -34.678129 0.000000 0.000000 0.000000 -7.125000 0.000000 0.000000 -38.027510 60.431291 15.615615 0.000000 0.000000 0.000000 -1.627830 -24.977763 39.447010 -28.826262 -39.854541 -10.653421 -26.299002 -47.619694 -22.819371 0.000000 0.000000 0.000000 7.125000 0.000000 0.000000 1.686983 4.846812 1.539657
7.074582 17.784345 5.039483 -178.998716 -4.503609 -180.055823 0.000000 0.000000 0.000000 -17.755981 -4.084736 -3.897434 1.943723 8.747753 25.009474 0.739842 -6.326047 -15.344697 0.005928 -0.482040 -1.324459 0.000000 0.000000 0.000000 17.029015 3.404920 -14.993610 -2.583678 -9.988438 28.939221 -0.383663 2.507776 -11.104319 -0.033192 -1.175756 3.232532 -4.296385 0.979830 3.136195 -0.003688 1.137598 1.154134 2.362731 0.546652 -0.656642 -16.945205 -11.398378 -7.564903 9.942541 -16.229761 18.804879 4.142639 -8.270877 9.362475 0.000000 0.000000 0.000000 13.176144 -4.960707 -23.497124 25.135928 -36.341939 8.370561 0.197406 6.534764 -34.613872 0.000000 0.000000 0.000000 -7.125000 0.000000 0.000000 -37.924588 60.388920 15.527018 0.000000 0.000000 0.000000 -1.436711 -24.295927 38.921734 -29.796579 -40.707563 -11.280716 -26.638418 -47.593801 -22.595198 0.000000 0.000000 0.000000 7.125000 0.000000 0.000000 1.447734 5.020952 1.316435
7.062364 17.788748 5.055724 -179.048265 -4.630012 -179.937242 0.000000 0.000000 0.000000 -17.840552 -4.084326 -4.079944 1.929470 8.717460 24.915482 0.727841 -6.362981 -15.222438 0.019269 -0.723788 -1.989993 0.000000 0.000000 0.000000 16.917343 3.377734 -15.203181 -2.591688 -10.002695 28.985420 -0.385789 2.396822 -11.149666 -0.025293 -0.987954 2.715902 -4.363427 1.014450 3.127392 -0.029462 1.181493 1.123351 2.371870 0.569851 -0.687369 -17.372307 -11.322919 -7.692980 10.457947 -16.200433 19.033945 4.376857 -8.246693 9.544359 0.000000 0.000000 0.000000 13.231938 -4.940109 -23.509132 25.378324 -36.587316 8.514717 0.310096 6.394049 -34.549049 0.000000 0.000000 0.000000 -7.125000 0.000000 0.000000 -37.745747 60.364675 15.418855 0.000000 0.000000 0.000000 -1.300842 -23.561875 38.477752 -30.937736 -41.664579 -12.035248 -27.172017 -47.928407 -22.483118 0.000000 0.000000 0.000000 7.125000 0.000000 0.000000 1.101971 5.034048 1.000324
7.047489 17.793907 5.071551 -179.261120 -4.807307 -179.795506 0.000000 0.000000 0.000000 -18.131888 -4.107365 -4.273667 1.913243 8.682903 24.808303 0.718375 -6.291061 -15.121019 0.048818 -1.328246 -3.653616 0.000000 0.000000 0.000000 16.613337 3.175396 -15.491261 -2.601404 -10.020024 29.041564 -0.383235 2.343684 -11.119015 -0.012421 -0.665266 1.828372 -4.557701 1.030326 3.116274 -0.093870 1.195116 1.098710 2.413890 0.576963 -0.709907 -17.415179 -11.154839 -8.169825 10.560118 -15.943355 19.405915 4.433852 -8.110316 9.735578 0.000000 0.000000 0.000000 13.255777 -4.935451 -23.506077 25.634151 -36.844294 8.667672 0.496908 6.268690 -34.483690 0.000000 0.000000 0.000000 -7.125000 0.000000 0.000000 -37.494929 60.357613 15.292144 0.000000 0.000000 0.000000 -1.217353 -22.778319 38.110841 -32.240858 -42.720189 -12.910407 -27.889714 -48.604784 -22.477308 0.000000 0.000000 0.000000 7.125000 0.000000 0.000000 0.655227 4.894465 0.596151
7.032485 17.799298 5.086523 -179.547205 -5.032034 -179.659462 0.000000 0.000000 0.000000 -18.499093 -4.172116 -4.438202 1.898362 8.651062 24.709689 0.706762 -6.303964 -15.000891 0.070682 -1.708328 -4.700395 0.000000 0.000000 0.000000 16.223342 2.909895 -15.770129 -2.609128 -10.033756 29.086063 -0.378688 2.303354 -11.056096 -0.004725 -0.415627 1.141981 -4.826913 1.050809 3.105181 -0.174269 1.211404 1.091018 2.481450 0.584074 -0.716530 -17.300463 -11.133271 -8.289161 10.393613 -15.845675 19.375583 4.369927 -8.060288 9.707519 0.000000 0.000000 0.000000 13.239328 -4.955376 -23.525482 25.891245 -37.100211 8.822335 0.591211 6.119240 -34.425111 0.000000 0.000000 0.000000 -7.125000 0.000000 0.000000 -37.340966 60.333732 15.196847 0.000000 0.000000 0.000000 -1.110497 -22.095163 37.575706 -33.428053 -43.644242 -13.720848 -28.179620 -48.646127 -22.267023 0.000000 0.000000 0.000000 7.125000 0.000000 0.000000 0.446934 5.064701 0.405665
